# xmcd
#
# Track frame offsets:
#	183
#	12503
#	23605
#	29948
#	41570
#	53925
#	66398
#	75800
#	88330
#	98148
#	111158
#	121713
#
# Disc length: 1738 seconds
#
# Revision: 2
# Processed by: cddbd v1.5.2PL0 Copyright (c) Steve Scherf et al.
# Submitted via: audiograbber 1.83.01
#
DISCID=9806c80c
DTITLE=Various Artist - Country Special
DYEAR=1989
DGENRE=Country
TTITLE0=Hank Locklin - Queen Of Hearts
TTITLE1=Sanford Clark - Big Time Day Tomorrow
TTITLE2=Lee Conway - People
TTITLE3=Patsy Cline - Let The Teardrops Fall
TTITLE4=Faron Young - Country Girl
TTITLE5=Bobby Bare - When Love Is gone
TTITLE6=Country Deputies - Red Haired Boy
TTITLE7=Patsy Cline - Fingerprints
TTITLE8=Buck Owens - There Goes My love
TTITLE9=Bobby Bare - I took A Memory To Lunch
TTITLE10=The Jordanaires - You're Wasting Your Time Girl
TTITLE11=George Jones - That's The way I Feel
EXTD=
EXTT0=
EXTT1=
EXTT2=
EXTT3=
EXTT4=
EXTT5=
EXTT6=
EXTT7=
EXTT8=
EXTT9=
EXTT10=
EXTT11=
PLAYORDER=
